HIERARCHY
ROOT SpineBase
{
  OFFSET 0.000000 0.000000 0.000000
  CHANNELS 6 Xposition Yposition Zposition Zrotation Xrotation Yrotation
  JOINT SpineMid
  {
    OFFSET 0.000000 31.636244 0.000000
    CHANNELS 3 Zrotation Xrotation Yrotation
    JOINT SpineShoulder
    {
      OFFSET 0.029458 23.601534 -0.782307
      CHANNELS 3 Zrotation Xrotation Yrotation
      JOINT Neck
      {
        OFFSET 0.059677 7.802502 -0.564334
        CHANNELS 3 Zrotation Xrotation Yrotation
        JOINT Head
        {
          OFFSET -4.611425 14.377964 0.000452
          CHANNELS 3 Zrotation Xrotation Yrotation
          End Site
          {
            OFFSET 0 0 0
          }
        }
      }
      JOINT ShoulderLeft
      {
        OFFSET -16.497052 -5.621985 6.850601
        CHANNELS 3 Zrotation Xrotation Yrotation
        JOINT ElbowLeft
        {
          OFFSET -1.186560 -30.063143 4.441413
          CHANNELS 3 Zrotation Xrotation Yrotation
          JOINT WristLeft
          {
            OFFSET -0.006848 -23.283411 -2.217507
            CHANNELS 3 Zrotation Xrotation Yrotation
            JOINT HandLeft
            {
              OFFSET -0.557610 -4.220764 -0.450884
              CHANNELS 3 Zrotation Xrotation Yrotation
              JOINT HandTipLeft
              {
                OFFSET 0.442297 -6.321246 -1.699410
                CHANNELS 3 Zrotation Xrotation Yrotation
                End Site
                {
                  OFFSET 0 0 0
                }
              }
              JOINT ThumbLeft
              {
                OFFSET 3.380701 2.778698 -3.164925
                CHANNELS 3 Zrotation Xrotation Yrotation
                End Site
                {
                  OFFSET 0 0 0
                }
              }
            }
          }
        }
      }
      JOINT ShoulderRight
      {
        OFFSET 14.329956 -3.764435 -9.319868
        CHANNELS 3 Zrotation Xrotation Yrotation
        JOINT ElbowRight
        {
          OFFSET 7.926584 -26.578428 -1.231739
          CHANNELS 3 Zrotation Xrotation Yrotation
          JOINT WristRight
          {
            OFFSET 0.606932 -22.724565 -6.487261
            CHANNELS 3 Zrotation Xrotation Yrotation
            JOINT HandRight
            {
              OFFSET -1.557007 -7.055603 -1.385218
              CHANNELS 3 Zrotation Xrotation Yrotation
              JOINT HandTipRight
              {
                OFFSET 0.071472 -6.226619 -1.248597
                CHANNELS 3 Zrotation Xrotation Yrotation
                End Site
                {
                  OFFSET 0 0 0
                }
              }
              JOINT ThumbRight
              {
                OFFSET 2.416570 -0.596462 -2.717916
                CHANNELS 3 Zrotation Xrotation Yrotation
                End Site
                {
                  OFFSET 0 0 0
                }
              }
            }
          }
        }
      }
    }
  }
  JOINT HipLeft
  {
    OFFSET -6.595801 0.152456 -0.824737
    CHANNELS 3 Zrotation Xrotation Yrotation
    JOINT KneeLeft
    {
      OFFSET 2.924092 -34.217711 2.961437
      CHANNELS 3 Zrotation Xrotation Yrotation
      JOINT AnkleLeft
      {
        OFFSET 9.109384 -37.020035 7.658348
        CHANNELS 3 Zrotation Xrotation Yrotation
        JOINT FootLeft
        {
          OFFSET -0.380708 -8.566565 -6.002298
          CHANNELS 3 Zrotation Xrotation Yrotation
          End Site
          {
            OFFSET 0 0 0
          }
        }
      }
    }
  }
  JOINT HipRight
  {
    OFFSET 7.128850 1.674266 -6.381030
    CHANNELS 3 Zrotation Xrotation Yrotation
    JOINT KneeRight
    {
      OFFSET 6.727147 -31.740602 -0.367064
      CHANNELS 3 Zrotation Xrotation Yrotation
      JOINT AnkleRight
      {
        OFFSET 4.344762 -39.277348 9.394377
        CHANNELS 3 Zrotation Xrotation Yrotation
        JOINT FootRight
        {
          OFFSET -3.026962 -9.227495 -0.468684
          CHANNELS 3 Zrotation Xrotation Yrotation
          End Site
          {
            OFFSET 0 0 0
          }
        }
      }
    }
  }
}
MOTION
Frames: 9
Frame Time: 0.033333
-23.218793 81.962010 338.227310 2.298165 -0.381046 20.146853 -0.009806 -0.754443 -20.040000 0.353259 -0.465707 0.144304 2.760643 0.451223 -0.627701 0.000000 0.000000 0.000000 -5.786245 -12.588025 -0.318549 -0.280472 -27.478139 -0.603053 0.192476 -58.657035 18.170671 32.415417 62.642631 -37.059414 0.000000 0.000000 0.000000 0.000000 0.000000 0.000000 27.198864 2.302161 -2.236066 17.401682 -6.807564 -10.220226 19.967515 11.246176 -10.454327 -11.593586 -12.575640 10.451992 0.000000 0.000000 0.000000 0.000000 0.000000 0.000000 -3.432141 0.324640 -20.297912 -0.865102 2.221155 0.088989 12.406507 -3.253750 -6.835224 0.000000 0.000000 0.000000 -2.149535 2.178220 -19.913830 -1.930115 -1.180160 -0.844855 -4.109682 58.546281 -15.574852 0.000000 0.000000 0.000000
-23.490695 82.211296 337.939332 2.462075 -0.869683 20.166018 -0.005685 -0.647956 -20.045249 0.312271 -0.394444 0.146210 4.572888 -0.993902 -1.136394 0.000000 0.000000 0.000000 -4.320545 -13.497175 0.096889 -1.639677 -31.887608 -0.813610 4.243585 -65.627489 24.583701 59.956193 70.266615 -63.584095 0.000000 0.000000 0.000000 0.000000 0.000000 0.000000 38.562074 1.490404 -3.209614 18.123401 -5.226614 -13.717197 24.317545 8.482772 -9.597822 -15.912304 -10.702404 11.157381 0.000000 0.000000 0.000000 0.000000 0.000000 0.000000 -3.205717 0.549218 -20.283301 -1.103251 2.185163 0.037317 8.436372 3.912288 -4.693007 0.000000 0.000000 0.000000 -1.634175 2.580565 -19.922710 -2.389417 -1.404197 -0.867245 -6.490176 62.307183 -15.217471 0.000000 0.000000 0.000000
-23.867418 82.659199 337.646805 2.372837 -1.130765 20.628986 0.039267 -0.488205 -20.510783 0.255781 -0.312901 0.136204 5.291758 -1.222601 -1.190453 0.000000 0.000000 0.000000 -5.039354 -15.643767 -0.064471 -4.655073 -36.119954 -1.338429 -1.710382 -64.570603 22.750868 45.293321 70.054593 -43.030954 0.000000 0.000000 0.000000 0.000000 0.000000 0.000000 52.169955 4.214765 -4.665598 16.839083 -4.541460 -17.568664 23.640433 6.842159 -7.153571 -16.640656 -8.558118 11.142386 0.000000 0.000000 0.000000 0.000000 0.000000 0.000000 -2.777033 0.611192 -20.723951 -1.295227 2.066411 -0.009335 6.491061 6.551231 -3.530370 0.000000 0.000000 0.000000 -1.064438 2.342501 -20.464384 -2.856844 -1.102779 -0.776597 -8.851382 63.367634 -14.013869 0.000000 0.000000 0.000000
-24.213944 83.230443 337.411151 2.097171 -1.084548 21.481160 -0.006656 -0.212808 -21.384860 0.209616 -0.256560 0.113202 5.669192 -0.885167 -0.954329 0.000000 0.000000 0.000000 -9.439306 -19.693361 -1.440332 -10.199319 -40.280491 -2.809737 -7.944360 -57.539378 16.336497 -6.019754 56.953421 21.408720 0.000000 0.000000 0.000000 0.000000 0.000000 0.000000 67.060265 10.752496 -7.901202 12.947337 -4.258907 -21.697259 23.071470 4.190886 -2.349625 -16.636715 -4.047133 8.487156 0.000000 0.000000 0.000000 0.000000 0.000000 0.000000 -2.405249 0.524044 -21.575046 -1.281026 1.894777 -0.031807 4.044758 8.437012 -1.944875 0.000000 0.000000 0.000000 -0.679521 1.713167 -21.418288 -3.037644 -0.548922 -0.622109 -10.435487 60.581688 -12.380673 0.000000 0.000000 0.000000
-24.514059 83.855007 337.244061 1.700523 -0.910502 22.550680 0.007747 -0.174938 -22.475247 0.197696 -0.263255 0.095307 5.853966 -0.295456 -0.706639 0.000000 0.000000 0.000000 -20.665971 -29.593085 -6.156118 -17.259532 -40.518255 -3.724948 -6.497995 -45.619274 7.275435 -20.020143 29.410169 46.915046 0.000000 0.000000 0.000000 0.000000 0.000000 0.000000 80.403375 18.292591 -13.291228 11.549156 -4.620057 -26.137708 20.854500 2.617684 -0.144673 -14.382726 -2.418704 9.190420 0.000000 0.000000 0.000000 0.000000 0.000000 0.000000 -2.086409 0.422950 -22.653105 -1.105583 1.719228 -0.028372 3.176552 9.109314 -1.447552 0.000000 0.000000 0.000000 -0.345454 0.994764 -22.578095 -3.074525 -0.022675 -0.472392 -11.241624 52.347724 -10.014690 0.000000 0.000000 0.000000
-24.743262 84.469799 337.174848 1.191132 -0.555278 23.708565 0.006043 -0.059504 -23.661181 0.173691 -0.237933 0.068039 5.280563 1.120085 -0.120487 0.000000 0.000000 0.000000 -46.287503 -38.600949 -20.149623 -24.903665 -39.458285 -2.713795 -2.366879 -25.327517 1.983241 -16.784289 11.719952 51.414608 0.000000 0.000000 0.000000 0.000000 0.000000 0.000000 91.181541 27.764731 -20.858207 11.779642 -2.896641 -31.800919 23.136795 2.005261 0.937171 -16.944319 -1.989548 9.829553 0.000000 0.000000 0.000000 0.000000 0.000000 0.000000 -1.805185 0.271122 -23.822622 -0.804409 1.414365 -0.028153 3.210199 8.835333 -1.563509 0.000000 0.000000 0.000000 -0.115541 0.236283 -23.796320 -2.878948 0.446540 -0.335152 -12.457094 47.753475 -8.573575 0.000000 0.000000 0.000000
-24.857001 84.974093 337.246880 0.680943 -0.122803 24.858702 -0.566240 0.397670 -24.856007 0.830280 -0.376058 0.065642 3.771780 3.726244 0.839238 0.000000 0.000000 0.000000 -83.807410 -35.341570 -40.357021 -23.028753 -29.703291 9.384333 2.878811 -10.892482 -0.140407 -10.649775 3.404546 43.775540 0.000000 0.000000 0.000000 0.000000 0.000000 0.000000 99.756422 38.280732 -30.533691 12.109089 -0.650714 -36.283072 19.889276 5.209432 -12.264297 -13.314390 -5.586680 19.301514 0.000000 0.000000 0.000000 0.000000 0.000000 0.000000 -1.615150 0.224240 -24.977527 -0.373311 0.991020 -0.022246 3.063636 7.517809 -1.505238 0.000000 0.000000 0.000000 0.024021 -0.349395 -24.957010 -2.526552 0.620425 -0.260706 -13.416584 45.196169 -7.776675 0.000000 0.000000 0.000000
-24.948937 85.569758 337.387164 0.089905 0.235399 25.934736 -0.183803 -0.172372 -25.935197 -0.000000 0.000000 0.000000 3.045479 6.360083 1.856621 0.000000 0.000000 0.000000 -107.268939 -20.329260 -44.060841 -16.243002 -20.498696 23.489549 12.382637 1.813767 4.502722 -14.077383 -8.705092 27.782343 0.000000 0.000000 0.000000 0.000000 0.000000 0.000000 109.240469 49.245505 -43.430491 9.429606 2.952981 -40.831852 22.407622 11.355240 -22.210463 -11.988121 -12.176270 26.529695 0.000000 0.000000 0.000000 0.000000 0.000000 0.000000 -1.254522 0.252485 -26.041321 -0.009793 0.487994 -0.029233 4.440397 5.258855 -2.468925 0.000000 0.000000 0.000000 -0.183803 -0.172372 -25.935197 -1.539717 0.305050 -0.331152 -15.395801 48.488887 -7.655161 0.000000 0.000000 0.000000
-24.855849 85.561248 337.493607 -0.267533 0.837413 26.937754 -0.058735 0.384646 -26.954344 0.081312 -0.151483 -0.019453 1.372159 7.820852 2.811023 0.000000 0.000000 0.000000 -116.294566 -5.193962 -33.858616 -10.702633 -14.646993 31.679344 20.170672 7.046854 7.928869 -22.639193 -13.276737 17.386541 0.000000 0.000000 0.000000 0.000000 0.000000 0.000000 115.441799 58.616804 -54.629837 6.240537 7.951643 -44.751399 6.100324 10.631985 -34.951578 3.092169 -3.772023 40.941223 0.000000 0.000000 0.000000 0.000000 0.000000 0.000000 -1.270473 0.035796 -27.042683 0.278951 0.130383 -0.031824 6.607205 1.925788 -3.829460 0.000000 0.000000 0.000000 -0.140861 -0.867750 -26.936866 -1.456567 0.359393 -0.304734 -14.125398 46.528039 -7.961148 0.000000 0.000000 0.000000
